<svg width="42" height="42" viewBox="0 0 42 42" fill="none" xmlns="http://www.w3.org/2000/svg">
<g id="undraw_male_avatar_323b 1" clip-path="url(#clip0)">
<path id="Vector" d="M42 21C42.0038 23.8427 41.4283 26.6565 40.3088 29.2695L40.2392 29.4298C38.3455 33.7379 35.0619 37.2865 30.9135 39.5082C26.7651 41.7299 21.9915 42.4963 17.3561 41.685C17.2299 41.6626 17.104 41.6394 16.9783 41.6154C15.6794 41.3636 14.4074 40.9885 13.1797 40.4952C12.9802 40.415 12.7822 40.332 12.5857 40.246C12.4515 40.1876 12.3173 40.1274 12.1843 40.0652C8.54721 38.3795 5.46777 35.6892 3.30901 32.3113C1.15025 28.9334 0.0021352 25.0088 0 21C0 9.40216 9.40216 0 21 0C32.5978 0 42 9.40216 42 21Z" fill="#36BFDD"/>
<path id="Vector_2" opacity="0.2" d="M17.3561 41.685C17.2299 41.6626 17.104 41.6394 16.9783 41.6154C16.8963 39.2352 16.6149 34.3499 15.6549 29.2335C15.1299 26.4333 14.4012 23.5629 13.3903 20.9969C13.044 20.109 12.6484 19.2412 12.2055 18.3974C11.1841 16.4682 9.94518 14.8441 8.44287 13.7438L8.66405 13.4419C9.91349 14.3577 11.0364 15.6433 12.0328 17.2989C12.3316 17.7947 12.6186 18.3236 12.8939 18.8857C13.189 19.4871 13.4704 20.1256 13.7382 20.8012C13.9091 21.2311 14.0741 21.676 14.2334 22.1357C14.9268 24.132 15.5162 26.4097 16.0016 28.9688C16.1091 29.5342 16.2114 30.1135 16.3086 30.7066C17.0609 35.3024 17.2877 39.5514 17.3561 41.685Z" fill="black"/>
<path id="Vector_3" opacity="0.2" d="M12.5857 40.2461C12.4515 40.1877 12.3173 40.1274 12.1843 40.0653C12.0545 38.6549 11.8159 36.9053 11.3798 35.2446C11.1887 34.4987 10.9435 33.7678 10.646 33.0576C10.1483 31.8927 9.50405 30.9023 8.67089 30.2916L8.89207 29.9902C9.76438 30.6289 10.4372 31.6385 10.9573 32.8196C11.5432 34.1505 11.934 35.6994 12.1943 37.1793C12.3875 38.2784 12.5093 39.3402 12.5857 40.2461Z" fill="black"/>
<path id="Vector_4" opacity="0.2" d="M6.35354 13.7351C7.38598 13.7351 8.22294 12.8982 8.22294 11.8657C8.22294 10.8333 7.38598 9.99632 6.35354 9.99632C5.32109 9.99632 4.48413 10.8333 4.48413 11.8657C4.48413 12.8982 5.32109 13.7351 6.35354 13.7351Z" fill="black"/>
<path id="Vector_5" opacity="0.2" d="M6.95556 29.8274C7.98801 29.8274 8.82497 28.9905 8.82497 27.958C8.82497 26.9256 7.98801 26.0886 6.95556 26.0886C5.92312 26.0886 5.08615 26.9256 5.08615 27.958C5.08615 28.9905 5.92312 29.8274 6.95556 29.8274Z" fill="black"/>
<path id="Vector_6" opacity="0.2" d="M13.7752 15.0058C13.3787 17.2423 14.2538 19.2674 14.2538 19.2674C14.2538 19.2674 15.7717 17.6664 16.1681 15.4299C16.5645 13.1934 15.6894 11.1683 15.6894 11.1683C15.6894 11.1683 14.1716 12.7692 13.7752 15.0058Z" fill="black"/>
<path id="Vector_7" opacity="0.2" d="M7.56234 20.3148C9.69557 21.0948 11.8392 20.5942 11.8392 20.5942C11.8392 20.5942 10.5241 18.8289 8.39089 18.0489C6.25765 17.2689 4.11405 17.7694 4.11405 17.7694C4.11405 17.7694 5.4291 19.5347 7.56234 20.3148Z" fill="black"/>
<path id="Vector_8" opacity="0.2" d="M7.2006 34.5651C8.69582 35.1118 10.2004 34.7551 10.2004 34.7551C10.2004 34.7551 9.28081 33.512 7.78558 32.9653C6.29036 32.4185 4.78574 32.7752 4.78574 32.7752C4.78574 32.7752 5.70537 34.0183 7.2006 34.5651Z" fill="black"/>
<path id="Vector_9" d="M20.9569 25.6504C25.4784 25.6504 29.1438 21.985 29.1438 17.4635C29.1438 12.942 25.4784 9.27657 20.9569 9.27657C16.4354 9.27657 12.77 12.942 12.77 17.4635C12.77 21.985 16.4354 25.6504 20.9569 25.6504Z" fill="#ECCA97"/>
<path id="Vector_10" d="M17.7589 23.7316C17.7589 23.7316 18.7822 28.5925 18.7822 29.1042C18.7822 29.6159 23.6432 31.9185 23.6432 31.9185L27.9925 31.151L29.5276 26.5458C29.5276 26.5458 26.9691 22.7082 26.9691 21.1732L17.7589 23.7316Z" fill="#ECCA97"/>
<path id="Vector_11" d="M40.3088 29.2695L40.2392 29.4298C38.3455 33.7379 35.0619 37.2865 30.9135 39.5082C26.7651 41.7299 21.9915 42.4963 17.3561 41.685C17.2299 41.6626 17.104 41.6394 16.9783 41.6154C15.6794 41.3636 14.4074 40.9885 13.1797 40.4952C12.9802 40.415 12.7822 40.332 12.5857 40.246C12.4515 40.1876 12.3173 40.1274 12.1843 40.0652C10.9792 39.5069 9.8298 38.8354 8.75165 38.0597L7.78118 35.2446L8.32668 34.8283L9.44876 33.9715L10.646 33.0576L10.9573 32.8196L15.6549 29.2335L16.0016 28.9688L18.4433 27.1049L18.444 27.1043C18.444 27.1043 21.0845 31.4068 24.9223 30.1275C28.7601 28.8483 28.6762 25.1801 28.6762 25.1801L40.3088 29.2695Z" fill="#2F2E41"/>
<path id="Vector_12" d="M13.8572 10.8676C13.8572 10.8676 16.4565 5.23572 21.4385 6.53538C26.4206 7.83503 29.2365 9.78452 29.4531 11.734C29.6697 13.6835 29.3448 16.6077 29.3448 16.6077C29.3448 16.6077 28.8033 12.6004 25.3375 13.4669C21.8718 14.3333 16.4565 13.6835 16.4565 13.6835L15.5901 21.4814C15.5901 21.4814 14.6154 20.0735 13.5323 20.9399C12.4493 21.8063 10.3915 12.6004 13.8572 10.8676Z" fill="#2F2E41"/>
<path id="Vector_13" d="M13.1797 40.4952C12.9802 40.4151 12.7823 40.332 12.5857 40.2461C12.4515 40.1877 12.3173 40.1274 12.1844 40.0653C10.1912 39.141 8.35494 37.9104 6.74237 36.4182C7.31335 35.6404 7.78119 35.2446 7.78119 35.2446H11.619L12.1943 37.1793L13.1797 40.4952Z" fill="#2F2E41"/>
<path id="Vector_14" d="M36.947 28.8483L40.2392 29.4298C39.3582 31.4369 38.1683 33.2937 36.7127 34.9327L36.947 28.8483Z" fill="#2F2E41"/>
</g>
<defs>
<clipPath id="clip0">
<rect width="42" height="42" fill="white"/>
</clipPath>
</defs>
</svg>
