<svg width="607" height="510" viewBox="0 0 607 510" fill="none" xmlns="http://www.w3.org/2000/svg">
<g id="Untitled 1">
<g id="undraw wandering mind 0mkm 1">
<g id="bgg">
<path id="Vector 4" d="M303.5 510C471.118 510 607 503.202 607 494.818C607 486.433 471.118 479.636 303.5 479.636C135.882 479.636 0 486.433 0 494.818C0 503.202 135.882 510 303.5 510Z" fill="#3F3D56"/>
<path id="Vector 5" opacity="0.1" d="M448.812 508.02C487.754 508.02 519.322 503.291 519.322 497.458C519.322 491.625 487.754 486.897 448.812 486.897C409.87 486.897 378.302 491.625 378.302 497.458C378.302 503.291 409.87 508.02 448.812 508.02Z" fill="black"/>
<path id="Vector 6" opacity="0.1" d="M201.107 508.02C250.207 508.02 290.011 502.404 290.011 495.478C290.011 488.551 250.207 482.936 201.107 482.936C152.007 482.936 112.203 488.551 112.203 495.478C112.203 502.404 152.007 508.02 201.107 508.02Z" fill="black"/>
<path id="Vector 7" d="M307.626 147.069L323.201 143.237L334.77 147.069L246.666 486.239L234.207 493.904L246.666 320.486L307.626 147.069Z" fill="#D0D0D2"/>
<path id="Vector 8" opacity="0.1" d="M307.626 147.069L323.201 143.237L334.77 147.069L246.666 486.239L234.207 493.904L246.666 320.486L307.626 147.069Z" fill="black"/>
<path id="Vector 9" d="M88.0346 41.9174L235.764 493.664L324.758 143.476L88.0346 41.9174Z" fill="#CED0D1"/>
</g>
<g id="leaf">
<path id="Vector 10" d="M132.971 326.113C157.882 350.373 153.182 374.786 136.658 394.452C136.274 394.908 135.888 395.359 135.498 395.801C134.714 396.695 133.918 397.559 133.109 398.395C117.029 415.007 96.2981 419.893 73.131 397.331C49.1561 373.982 46.6184 311.528 46.46 306.875C46.4618 306.873 46.4618 306.873 46.4616 306.869C46.4553 306.692 46.4531 306.602 46.4531 306.602C46.4531 306.602 108.062 301.855 132.971 326.113Z" fill="#CED0D1"/>
<path id="Vector 11" d="M131.76 392.035L125.8 362.551L133.588 393.875L135.499 395.8C134.715 396.693 133.919 397.557 133.11 398.392L109.368 372.719L109.166 372.542L109.15 372.483L106.907 370.056L77.1043 364.832L105.176 368.299L105.703 368.753L87.7648 349.356L58.9179 341.637L84.5716 345.995L46.4608 306.873L46.3345 306.743L46.4624 306.867L77.0939 337.033L74.26 313.993L79.7046 339.662L96.3161 356.377L88.8911 330.201L98.7601 358.832L107.998 368.126L98.1801 331.073L111.218 371.37L131.76 392.035Z" fill="#3F3D56"/>
</g>
<g id="bg">
<path id="Vector 12" d="M199.268 280.287C178.652 280.287 158.5 286.868 141.359 299.198C124.219 311.529 110.858 329.055 102.969 349.56C95.0807 370.064 93.0163 392.627 97.0384 414.395C101.06 436.163 110.987 456.158 125.564 471.852C140.142 487.546 158.714 498.233 178.933 502.563C199.152 506.893 220.11 504.67 239.156 496.177C258.202 487.683 274.48 473.301 285.934 454.847C297.387 436.393 303.5 414.697 303.5 392.503C303.5 362.741 292.518 334.199 272.971 313.154C253.424 292.109 226.912 280.287 199.268 280.287ZM201.107 419.897C189.424 419.897 179.954 407.484 179.954 392.173C179.954 376.861 189.424 364.449 201.107 364.449C212.79 364.449 222.26 376.861 222.26 392.173C222.26 407.484 212.79 419.897 201.107 419.897Z" fill="#3F3D56"/>
<path id="Vector 13" opacity="0.1" d="M200.494 419.897C188.811 419.897 179.341 407.484 179.341 392.173C179.341 376.861 188.811 364.449 200.494 364.449C211.808 364.449 221.047 376.091 221.619 390.734C221.632 390.335 221.647 389.935 221.647 389.532C221.646 382.17 219.402 375.012 215.261 369.154C211.12 363.296 205.308 359.061 198.718 357.099C192.127 355.136 185.121 355.554 178.772 358.288C172.423 361.022 167.082 365.922 163.567 372.237C160.052 378.552 158.556 385.933 159.311 393.25C160.065 400.567 163.026 407.416 167.741 412.748C172.456 418.08 178.665 421.6 185.416 422.77C192.167 423.939 199.089 422.694 205.119 419.224C203.612 419.669 202.057 419.894 200.494 419.897Z" fill="black"/>
<path id="Vector 14" d="M90.9268 0C82.0382 -1.30554e-06 73.3489 2.83769 65.9582 8.15423C58.5677 13.4708 52.8074 21.0274 49.4058 29.8684C46.0043 38.7095 45.1143 48.438 46.8484 57.8236C48.5825 67.209 52.8628 75.8305 59.148 82.5971C65.4334 89.3638 73.4409 93.9719 82.159 95.8387C90.8771 97.7061 99.9134 96.7476 108.125 93.0854C116.337 89.4232 123.357 83.2222 128.295 75.2655C133.233 67.3087 135.869 57.9538 135.869 48.3843C135.869 42.0304 134.706 35.7387 132.447 29.8684C130.189 23.9982 126.879 18.6643 122.705 14.1715C118.532 9.67852 113.578 6.11457 108.125 3.68304C102.673 1.2515 96.8288 0 90.9268 0ZM91.7196 60.1958C86.6827 60.1958 82.5992 54.8439 82.5992 48.242C82.5992 41.6402 86.6827 36.2882 91.7196 36.2882C96.757 36.2882 100.841 41.6401 100.841 48.242C100.841 54.8439 96.757 60.1958 91.7196 60.1958Z" fill="#3F3D56"/>
<path id="Vector 15" opacity="0.1" d="M91.4553 60.1958C86.4184 60.1958 82.3349 54.8439 82.3349 48.242C82.3349 41.6401 86.4184 36.2883 91.4553 36.2883C96.334 36.2883 100.317 41.3081 100.564 47.6216C100.569 47.4493 100.576 47.2773 100.576 47.1036C100.576 43.9294 99.6081 40.8429 97.8227 38.3171C96.0366 35.7913 93.5313 33.9654 90.6895 33.1192C87.8482 32.273 84.8267 32.4532 82.0897 33.6321C79.3521 34.811 77.0491 36.9237 75.5335 39.6464C74.0178 42.3691 73.3734 45.5517 73.6984 48.7065C74.0233 51.8614 75.3005 54.8144 77.333 57.1133C79.3662 59.4123 82.0431 60.9302 84.9542 61.4345C87.8654 61.9388 90.8495 61.4018 93.4498 59.9057C92.7999 60.0972 92.1291 60.1948 91.4553 60.1958Z" fill="black"/>
<path id="Vector 16" d="M418.156 436.729H411.411V498.118C411.411 498.118 454.943 513.301 497.25 498.118V436.729H418.156Z" fill="#3F3D56"/>
<path id="Vector 17" d="M453.717 443.99C477.082 443.99 496.023 440.887 496.023 437.059C496.023 433.232 477.082 430.128 453.717 430.128C430.352 430.128 411.411 433.232 411.411 437.059C411.411 440.887 430.352 443.99 453.717 443.99Z" fill="#3F3D56"/>
<path id="Vector 18" opacity="0.1" d="M453.717 443.99C477.082 443.99 496.023 440.887 496.023 437.059C496.023 433.232 477.082 430.128 453.717 430.128C430.352 430.128 411.411 433.232 411.411 437.059C411.411 440.887 430.352 443.99 453.717 443.99Z" fill="black"/>
</g>
<g id="lleaf">
<path id="Vector 19" d="M405.806 363.383C416.478 405.857 453.034 432.162 453.034 432.162C453.034 432.162 472.286 389.604 461.614 347.13C450.941 304.657 414.385 278.351 414.385 278.351C414.385 278.351 395.134 320.91 405.806 363.383Z" fill="#CED0D1"/>
<path id="Vector 20" d="M421.489 354.256C450.774 384.947 454.351 432.127 454.351 432.127C454.351 432.127 410.447 429.547 381.162 398.855C351.876 368.163 348.299 320.983 348.299 320.983C348.299 320.983 392.203 323.564 421.489 354.256Z" fill="#3F3D56"/>
</g>
<g id="rleaf">
<path id="Vector 21" d="M502.895 363.383C492.223 405.857 455.668 432.162 455.668 432.162C455.668 432.162 436.415 389.604 447.088 347.13C457.76 304.657 494.316 278.351 494.316 278.351C494.316 278.351 513.568 320.91 502.895 363.383Z" fill="#3F3D56"/>
<path id="Vector 22" d="M487.213 354.256C457.928 384.947 454.351 432.127 454.351 432.127C454.351 432.127 498.254 429.547 527.54 398.855C556.825 368.163 560.402 320.983 560.402 320.983C560.402 320.983 516.498 323.564 487.213 354.256Z" fill="#3F3D56"/>
</g>
<g id="dot">
<path id="Vector 23" d="M454.33 292.828C461.78 292.828 467.819 286.327 467.819 278.306C467.819 270.286 461.78 263.784 454.33 263.784C446.881 263.784 440.841 270.286 440.841 278.306C440.841 286.327 446.881 292.828 454.33 292.828Z" fill="#CED0D1"/>
</g>
<g id="body">
<path id="Vector 24" d="M203.214 165.003C203.214 165.003 229.178 165.763 233.466 167.443C237.754 169.123 239.671 181.133 239.671 181.133L219.512 187.954L204.434 187.035L193.086 187.898L199.423 170.033L203.214 165.003Z" fill="#2F2E41"/>
<path id="Vector 25" d="M204.334 155.831C204.334 155.831 206.042 162.934 202.251 167.963C198.46 172.993 218.549 190.915 218.549 190.915L229.147 188.954C229.147 188.954 226.811 167.128 229.949 161.601C233.087 156.075 204.334 155.831 204.334 155.831Z" fill="#D99C64"/>
<path id="Vector 26" opacity="0.1" d="M204.334 155.831C204.334 155.831 206.042 162.934 202.251 167.963C198.46 172.993 218.549 190.915 218.549 190.915L229.147 188.954C229.147 188.954 226.811 167.128 229.949 161.601C233.087 156.075 204.334 155.831 204.334 155.831Z" fill="black"/>
<path id="Vector 27" d="M274.818 363.51L251.433 396.896L267.392 406.926L289.356 368.239L274.818 363.51Z" fill="#D99C64"/>
<g id="foot">
<path id="Vector 28" d="M258.415 397.459C258.415 397.459 249.804 386.687 250.188 389.089C250.571 391.491 244.061 411.862 250.118 413.833C256.175 415.803 308.121 421.029 308.835 414.715C309.55 408.399 293.339 403.98 293.339 403.98C293.339 403.98 283.708 394.015 281.573 395.028C279.437 396.042 258.415 397.459 258.415 397.459Z" fill="#2F2E41"/>
</g>
<path id="Vector 29" d="M269.571 395.394L288.249 429.652L302.35 420.861L283.516 392.814L269.571 395.394Z" fill="#D99C64"/>
<path id="Vector 30" d="M299.056 313.891L293.513 322.336C293.513 322.336 267.087 361.849 269.894 365.04C272.7 368.23 284.387 380.287 290.332 377.951C296.275 375.614 317.394 335.229 317.394 335.229L311.885 311.518L299.056 313.891Z" fill="#2F2E41"/>
<path id="Vector 31" d="M185.221 305.897C185.221 305.897 191.139 317.786 206.138 321.811C221.138 325.837 236.808 334.065 237.366 333.962C237.924 333.859 239.502 332.949 239.885 335.351C240.269 337.753 244.382 341.938 244.382 341.938C244.382 341.938 260.951 402.554 267.279 402.62C273.606 402.685 286.61 397.806 286.88 395.901C287.15 393.996 267.506 332.095 267.314 330.894L265.013 316.481C265.013 316.481 290.994 320.948 293.417 321.736C295.84 322.524 317.394 335.229 317.394 335.229C317.394 335.229 339.366 318.179 318.814 300.962C298.263 283.743 262.938 271.113 262.938 271.113L250.265 267.275L239.221 266.566L237.595 259.852L211.437 261.477L184.14 273.947L185.221 305.897Z" fill="#2F2E41"/>
<path id="Vector 32" d="M201.309 165.665L203.76 165.211C203.76 165.211 208.186 183.558 221.879 186.589C221.879 186.589 228.635 177.875 228.346 176.405C228.058 174.935 233.697 167.091 236.695 171.482C239.693 175.873 235.963 253.229 238.482 254.617C241.001 256.006 246.405 257.48 242.056 262.612C237.706 267.745 220.432 274.651 216.606 272.268C212.78 269.884 204.962 249.692 201.58 242.898C198.198 236.104 192.786 212.994 192.786 212.994C192.786 212.994 185.874 187.687 190.128 181.954C194.38 176.221 201.309 165.665 201.309 165.665Z" fill="#D0CDE1"/>
<path id="Vector 33" d="M220.81 260.897C220.354 266.285 219.575 271.637 218.476 276.916C217.476 281.212 216.313 283.806 214.985 283.695C211.597 283.423 210.058 288.773 209.264 294.94C208.415 301.483 208.415 308.947 207.95 311.586C207.333 315.071 203.391 317.731 195.513 316.95C190.822 316.375 186.217 315.159 181.811 313.332C171.175 309.168 171.49 275.406 173.269 250.353C174.357 234.997 175.993 222.905 175.993 222.905C175.993 222.905 172.763 212.53 171.729 205.419C171.523 204.122 171.42 202.808 171.421 201.492C171.579 195.28 182.112 178.495 188.477 168.039C194.849 157.583 203.542 165.253 203.542 165.253L200.517 175.083C200.517 175.083 205.205 182.872 205.239 190.284C205.273 197.697 216.464 203.047 220.481 206.635C223.007 208.89 222.945 238.99 220.81 260.897Z" fill="#2F2E41"/>
<path id="Vector 34" d="M229.657 168.766C229.657 168.766 230.391 169.7 233.753 169.244C237.786 168.697 243.33 170.2 244.617 174.344C246.98 181.944 253.638 212.862 253.638 212.862C253.638 212.862 256.41 248.209 257.656 256.016C258.903 263.823 258.284 270.738 259.513 274.838C260.741 278.939 247.381 267.191 242.456 268.72C237.532 270.25 234.368 250.432 234.987 243.517C235.606 236.602 236.129 229.086 234.42 221.983C232.712 214.88 235.741 196.08 235.628 191.774C235.514 187.467 224.769 176.612 229.657 168.766Z" fill="#2F2E41"/>
<path id="Vector 35" d="M244.074 278.623C244.074 278.623 265.648 291.294 267.712 309.329C269.777 327.364 238.857 291.866 238.857 291.866L244.074 278.623Z" fill="#D99C64"/>
<path id="Vector 36" d="M291.657 422.221C291.657 422.221 286.384 428.761 285.076 427.767C283.769 426.772 280.762 440.312 283.473 442.902C286.183 445.491 296.624 449.742 296.738 454.049C296.851 458.356 324.855 457.502 325.857 452.988C326.859 448.475 322.345 438.182 319.172 436.296C315.999 434.41 304.269 417.051 304.269 417.051C304.269 417.051 295.082 418.496 291.657 422.221Z" fill="#2F2E41"/>
<path id="Vector 37" opacity="0.1" d="M240.637 300.562C235.634 296.76 221.665 295.817 209.264 294.94C203.822 294.564 198.682 294.196 194.733 293.599C190.927 293.032 187.505 289.288 184.467 283.711C179.86 275.259 176.137 262.585 173.269 250.353C174.357 234.997 175.993 222.905 175.993 222.905C175.993 222.905 172.763 212.53 171.729 205.419C172.458 204.327 173.396 203.418 174.481 202.752C187.635 196.673 200.195 256.498 201.789 265.886C201.817 266.04 201.837 266.188 201.858 266.313C202.631 271.147 210.988 275.281 218.476 276.916C223.089 277.926 227.38 277.992 229.358 276.681C234.553 273.247 250.528 286.989 251.739 287.38C252.95 287.777 247.824 306.037 240.637 300.562Z" fill="black"/>
<path id="Vector 38" d="M174.483 199.069C174.483 199.069 164.922 203.929 169.123 226.647C173.324 249.363 181.787 287.985 194.729 289.917C207.672 291.85 233.444 291.409 240.635 296.879C247.825 302.35 252.95 284.09 251.739 283.696C250.527 283.302 234.551 269.565 229.356 272.999C224.162 276.434 203.105 270.438 201.859 262.631C200.612 254.824 187.852 192.885 174.483 199.069Z" fill="#2F2E41"/>
</g>
<g id="hand">
<path id="Vector 39" d="M256.389 265.833C256.389 265.833 263 301.706 273.298 299.8C283.595 297.895 267.545 263.769 267.545 263.769L256.389 265.833Z" fill="#D99C64"/>
<path id="Vector 40" d="M243.38 188.175L253.888 214.425C253.888 214.425 254.946 213.857 256.175 217.957C257.404 222.058 257.979 225.661 260.131 228.354C262.284 231.047 271.863 269.462 272.151 271.264C272.438 273.065 258.921 279.276 255.901 274.271C252.88 269.265 243.38 188.175 243.38 188.175Z" fill="#2F2E41"/>
</g>
<g id="head">
<path id="Vector 41" d="M219.743 169.969C230.996 169.969 240.118 160.149 240.118 148.034C240.118 135.918 230.996 126.097 219.743 126.097C208.49 126.097 199.368 135.918 199.368 148.034C199.368 160.149 208.49 169.969 219.743 169.969Z" fill="#D99C64"/>
<path id="Vector 42" d="M208.151 147.728C208.932 147.504 209.047 146.387 209.073 145.518C209.213 140.861 211.818 136.082 215.958 134.726C217.548 134.257 219.211 134.159 220.838 134.437C223.161 134.77 225.404 135.575 227.447 136.81C228.525 137.463 229.583 138.249 230.807 138.449C231.614 138.581 235.113 139.676 235.917 139.829C237.686 140.168 239.33 141.872 241.027 141.238C242.65 140.631 243.01 138.368 243.049 136.518C243.138 132.304 240.167 126.471 237.549 123.336C235.563 120.957 232.572 119.858 229.648 119.287C226.233 118.696 222.772 118.469 219.316 118.611C214.636 118.7 209.828 119.089 205.609 121.269C201.39 123.448 197.846 127.786 197.644 132.819C197.602 133.868 197.702 134.921 197.62 135.967C197.42 138.518 196.162 140.822 195.572 143.302C195.15 145.122 195.087 147.017 195.387 148.864C195.687 150.712 196.343 152.471 197.313 154.029C198.879 156.509 201.34 158.754 201.249 161.751L204.645 157.964C205.152 157.548 205.511 156.956 205.661 156.288C205.812 155.621 205.746 154.918 205.474 154.297L204.272 149.25C203.963 148.349 203.927 147.366 204.168 146.442C205.456 143.015 206.849 148.102 208.151 147.728Z" fill="#2F2E41"/>
</g>
</g>
</g>
</svg>
